<?xml version="1.0" standalone="no"?>
<!DOCTYPE svg PUBLIC "-//W3C//DTD SVG 20010904//EN"
 "http://www.w3.org/TR/2001/REC-SVG-20010904/DTD/svg10.dtd">
<svg version="1.0" xmlns="http://www.w3.org/2000/svg"
 width="700.000000pt" height="700.000000pt" viewBox="0 0 700.000000 700.000000"
 preserveAspectRatio="xMidYMid meet">
<metadata>
Created by potrace 1.14, written by Peter Selinger 2001-2017
</metadata>
<g transform="translate(0.000000,700.000000) scale(0.100000,-0.100000)"
fill="#000000" stroke="none">
<path d="M3434 5941 c-105 -27 -247 -152 -353 -311 -181 -271 -336 -701 -417
-1160 -3 -14 -7 -31 -9 -37 -3 -10 19 -13 90 -13 52 0 421 0 820 0 399 0 738
0 754 0 28 0 29 1 21 33 -5 17 -11 46 -14 62 -31 193 -113 489 -191 691 -167
431 -412 727 -613 740 -31 2 -71 0 -88 -5z"/>
<path d="M2795 5848 c-455 -148 -831 -388 -1119 -714 -112 -127 -116 -131
-212 -274 -74 -110 -234 -406 -234 -433 0 -4 250 -6 556 -5 l556 3 38 185 c75
370 156 627 282 899 40 87 133 251 173 306 46 63 48 62 -40 33z"/>
<path d="M4145 5846 c8 -11 22 -34 31 -51 9 -16 20 -32 23 -35 13 -9 90 -150
140 -253 49 -103 151 -366 151 -390 0 -8 3 -17 7 -21 4 -3 8 -12 9 -19 2 -7
19 -70 39 -142 37 -135 89 -374 100 -460 4 -27 8 -51 10 -53 5 -5 1107 -3
1113 2 10 11 -141 299 -217 413 -104 157 -184 256 -311 384 -302 303 -659 517
-1048 629 l-63 18 16 -22z"/>
<path d="M1159 4112 c-35 -3 -36 -4 -47 -60 -6 -31 -13 -68 -16 -82 -25 -112
-39 -261 -41 -430 -3 -176 1 -246 20 -390 12 -86 46 -245 54 -253 7 -7 918
-13 1147 -8 28 1 31 4 28 29 -4 33 -13 126 -19 207 -3 33 -8 85 -11 115 -11
125 -3 594 11 650 2 8 7 58 10 110 4 52 9 98 12 103 2 4 -4 7 -14 8 -75 2
-1106 3 -1134 1z"/>
<path d="M2768 4112 c-156 -2 -158 -3 -159 -25 0 -12 -2 -35 -4 -52 -35 -283
-39 -660 -10 -960 1 -16 6 -65 10 -107 l7 -78 42 -1 c165 -2 1728 0 1730 3 15
16 31 339 31 608 0 260 -17 593 -31 609 -3 4 -1397 7 -1616 3z"/>
<path d="M4769 4110 c-60 -4 -76 -8 -74 -20 16 -108 28 -361 28 -575 1 -205
-14 -529 -27 -599 -4 -24 -2 -26 27 -26 264 -4 1137 -1 1145 3 5 4 14 26 18
50 4 23 8 44 9 47 34 146 46 254 50 460 5 220 -4 331 -46 545 -11 55 -23 103
-28 108 -9 9 -980 15 -1102 7z"/>
<path d="M1628 2582 c-219 -1 -398 -5 -398 -9 0 -3 31 -70 69 -147 124 -252
276 -464 475 -661 130 -129 231 -212 374 -307 225 -148 378 -218 711 -324 11
-3 10 1 -2 18 -211 303 -368 705 -472 1211 -19 93 -35 179 -35 193 0 23 -2 24
-72 24 -40 1 -113 2 -163 3 -49 1 -269 1 -487 -1z"/>
<path d="M2663 2577 c-3 -5 -2 -23 1 -40 3 -18 8 -48 11 -67 3 -19 15 -75 26
-125 12 -49 22 -98 24 -107 18 -85 119 -402 156 -487 109 -251 220 -431 338
-550 197 -197 365 -198 561 -2 190 191 366 548 475 967 31 118 63 260 71 312
3 20 9 52 14 70 8 32 8 32 -28 32 -751 5 -1645 3 -1649 -3z"/>
<path d="M4650 2553 c0 -16 -4 -44 -10 -63 -5 -19 -11 -53 -15 -75 -8 -57 -71
-326 -96 -410 -60 -202 -119 -359 -194 -519 -44 -94 -130 -246 -170 -301 -40
-54 -40 -55 17 -39 72 21 139 43 163 53 11 5 56 23 100 41 194 80 422 216 590
351 96 77 274 251 341 334 27 33 51 62 54 65 18 17 116 161 170 250 53 88 170
318 170 335 0 3 -252 5 -560 5 l-560 0 0 -27z"/>
</g>
</svg>
